<svg xmlns="http://www.w3.org/2000/svg" width="21" height="18" viewBox="0 0 21 18" fill="none">
  <path d="M4.42 14.2298C2.19 12.7698 0.75 10.5698 0.75 8.63984C0.75 5.35984 4.89 1.33984 10 1.33984C12.09 1.33984 14.03 2.00984 15.59 3.04984" stroke="black" stroke-width="1.5" stroke-linecap="round" stroke-linejoin="round"/>
  <path d="M4.42 14.2298C2.19 12.7698 0.75 10.5698 0.75 8.63984C0.75 5.35984 4.89 1.33984 10 1.33984C12.09 1.33984 14.03 2.00984 15.59 3.04984" stroke="white" stroke-opacity="0.45" stroke-width="1.5" stroke-linecap="round" stroke-linejoin="round"/>
  <path d="M17.8501 5.11035C18.7411 6.24035 19.2601 7.49035 19.2601 8.64035C19.2601 11.9204 15.1101 15.9404 10.0001 15.9404C9.09012 15.9404 8.20112 15.8104 7.37012 15.5804" stroke="black" stroke-width="1.5" stroke-linecap="round" stroke-linejoin="round"/>
  <path d="M17.8501 5.11035C18.7411 6.24035 19.2601 7.49035 19.2601 8.64035C19.2601 11.9204 15.1101 15.9404 10.0001 15.9404C9.09012 15.9404 8.20112 15.8104 7.37012 15.5804" stroke="white" stroke-opacity="0.45" stroke-width="1.5" stroke-linecap="round" stroke-linejoin="round"/>
  <path d="M7.76584 10.8672C7.17084 10.2782 6.83784 9.47518 6.84084 8.63818C6.83684 6.89318 8.24884 5.47518 9.99484 5.47218C10.8348 5.47018 11.6408 5.80318 12.2348 6.39718" stroke="black" stroke-width="1.5" stroke-linecap="round" stroke-linejoin="round"/>
  <path d="M7.76584 10.8672C7.17084 10.2782 6.83784 9.47518 6.84084 8.63818C6.83684 6.89318 8.24884 5.47518 9.99484 5.47218C10.8348 5.47018 11.6408 5.80318 12.2348 6.39718" stroke="white" stroke-opacity="0.45" stroke-width="1.5" stroke-linecap="round" stroke-linejoin="round"/>
  <path d="M13.1093 9.19922C12.8753 10.4912 11.8643 11.5042 10.5723 11.7412" stroke="black" stroke-width="1.5" stroke-linecap="round" stroke-linejoin="round"/>
  <path d="M13.1093 9.19922C12.8753 10.4912 11.8643 11.5042 10.5723 11.7412" stroke="white" stroke-opacity="0.45" stroke-width="1.5" stroke-linecap="round" stroke-linejoin="round"/>
  <path d="M17.8922 0.75L2.11816 16.524" stroke="black" stroke-width="1.5" stroke-linecap="round" stroke-linejoin="round"/>
  <path d="M17.8922 0.75L2.11816 16.524" stroke="white" stroke-opacity="0.45" stroke-width="1.5" stroke-linecap="round" stroke-linejoin="round"/>
</svg>