<svg xmlns="http://www.w3.org/2000/svg" width="25" height="24" viewBox="0 0 25 24" fill="none">
  <path d="M7.50684 11.9998C7.50684 11.8009 7.58585 11.6102 7.72651 11.4695C7.86716 11.3289 8.05792 11.2498 8.25684 11.2498H11.7498V7.75684C11.7498 7.55792 11.8289 7.36716 11.9695 7.22651C12.1102 7.08585 12.3009 7.00684 12.4998 7.00684C12.6987 7.00684 12.8895 7.08585 13.0302 7.22651C13.1708 7.36716 13.2498 7.55792 13.2498 7.75684V11.2498H16.7428C16.9417 11.2498 17.1325 11.3289 17.2732 11.4695C17.4138 11.6102 17.4928 11.8009 17.4928 11.9998C17.4928 12.1987 17.4138 12.3895 17.2732 12.5302C17.1325 12.6708 16.9417 12.7498 16.7428 12.7498H13.2498V16.2428C13.2498 16.4417 13.1708 16.6325 13.0302 16.7732C12.8895 16.9138 12.6987 16.9928 12.4998 16.9928C12.3009 16.9928 12.1102 16.9138 11.9695 16.7732C11.8289 16.6325 11.7498 16.4417 11.7498 16.2428V12.7498H8.25684C8.05792 12.7498 7.86716 12.6708 7.72651 12.5302C7.58585 12.3895 7.50684 12.1987 7.50684 11.9998Z" fill="url(#paint0_linear_17_5048)"/>
  <path fill-rule="evenodd" clip-rule="evenodd" d="M7.81733 3.76904C10.9298 3.42399 14.0709 3.42399 17.1833 3.76904C19.0103 3.97304 20.4853 5.41204 20.6993 7.24904C21.0693 10.406 21.0693 13.595 20.6993 16.752C20.4843 18.589 19.0093 20.027 17.1833 20.232C14.0709 20.5771 10.9298 20.5771 7.81733 20.232C5.99033 20.027 4.51533 18.589 4.30133 16.752C3.93211 13.5951 3.93211 10.4059 4.30133 7.24904C4.51533 5.41204 5.99133 3.97304 7.81733 3.76904ZM17.0173 5.25904C14.0152 4.92627 10.9855 4.92627 7.98333 5.25904C7.42757 5.32069 6.90883 5.56791 6.51091 5.96075C6.11299 6.35359 5.85912 6.86912 5.79033 7.42404C5.43468 10.465 5.43468 13.5371 5.79033 16.578C5.85933 17.1328 6.11329 17.6481 6.51119 18.0407C6.9091 18.4333 7.42772 18.6804 7.98333 18.742C10.9603 19.074 14.0403 19.074 17.0173 18.742C17.5728 18.6802 18.0912 18.433 18.4889 18.0404C18.8866 17.6478 19.1404 17.1326 19.2093 16.578C19.565 13.5371 19.565 10.465 19.2093 7.42404C19.1402 6.86963 18.8863 6.35468 18.4886 5.96226C18.0909 5.56983 17.5726 5.32281 17.0173 5.26104V5.25904Z" fill="url(#paint1_linear_17_5048)"/>
  <defs>
    <linearGradient id="paint0_linear_17_5048" x1="12.4998" y1="7.00684" x2="12.4998" y2="16.9928" gradientUnits="userSpaceOnUse">
      <stop stop-color="#E179CB"/>
      <stop offset="1" stop-color="#D7DF4D"/>
    </linearGradient>
    <linearGradient id="paint1_linear_17_5048" x1="12.5006" y1="3.51025" x2="12.5006" y2="20.4908" gradientUnits="userSpaceOnUse">
      <stop stop-color="#E179CB"/>
      <stop offset="1" stop-color="#D7DF4D"/>
    </linearGradient>
  </defs>
</svg>