<svg xmlns="http://www.w3.org/2000/svg" width="24" height="25" viewBox="0 0 24 25" fill="none">
  <g clip-path="url(#clip0_482_2369)">
    <path d="M12.917 13.5001C12.6623 14.9802 11.8619 16.311 10.6739 17.2298C9.48593 18.1486 7.99666 18.5886 6.50009 18.463C5.00352 18.3374 3.60841 17.6554 2.59016 16.5514C1.57191 15.4475 1.00452 14.0019 1 12.5001C0.998629 10.9947 1.56319 9.54382 2.58168 8.43527C3.60017 7.32672 4.99816 6.64153 6.49828 6.51565C7.9984 6.38977 9.49103 6.8324 10.68 7.75571C11.869 8.67902 12.6675 10.0155 12.917 11.5001H23V13.5001H21V17.5001H19V13.5001H17V17.5001H15V13.5001H12.917ZM7 16.5001C8.06087 16.5001 9.07828 16.0787 9.82843 15.3285C10.5786 14.5784 11 13.561 11 12.5001C11 11.4392 10.5786 10.4218 9.82843 9.67169C9.07828 8.92154 8.06087 8.50012 7 8.50012C5.93914 8.50012 4.92172 8.92154 4.17158 9.67169C3.42143 10.4218 3 11.4392 3 12.5001C3 13.561 3.42143 14.5784 4.17158 15.3285C4.92172 16.0787 5.93914 16.5001 7 16.5001Z" fill="black"/>
    <path d="M12.917 13.5001C12.6623 14.9802 11.8619 16.311 10.6739 17.2298C9.48593 18.1486 7.99666 18.5886 6.50009 18.463C5.00352 18.3374 3.60841 17.6554 2.59016 16.5514C1.57191 15.4475 1.00452 14.0019 1 12.5001C0.998629 10.9947 1.56319 9.54382 2.58168 8.43527C3.60017 7.32672 4.99816 6.64153 6.49828 6.51565C7.9984 6.38977 9.49103 6.8324 10.68 7.75571C11.869 8.67902 12.6675 10.0155 12.917 11.5001H23V13.5001H21V17.5001H19V13.5001H17V17.5001H15V13.5001H12.917ZM7 16.5001C8.06087 16.5001 9.07828 16.0787 9.82843 15.3285C10.5786 14.5784 11 13.561 11 12.5001C11 11.4392 10.5786 10.4218 9.82843 9.67169C9.07828 8.92154 8.06087 8.50012 7 8.50012C5.93914 8.50012 4.92172 8.92154 4.17158 9.67169C3.42143 10.4218 3 11.4392 3 12.5001C3 13.561 3.42143 14.5784 4.17158 15.3285C4.92172 16.0787 5.93914 16.5001 7 16.5001Z" fill="white" fill-opacity="0.45"/>
  </g>
  <defs>
    <clipPath id="clip0_482_2369">
      <rect width="24" height="24" fill="white" transform="translate(0 0.5)"/>
    </clipPath>
  </defs>
</svg>