<svg xmlns="http://www.w3.org/2000/svg" width="18" height="21" viewBox="0 0 18 21" fill="none">
  <path d="M4 4.5V1.5C4 1.23478 4.10536 0.98043 4.29289 0.792893C4.48043 0.605357 4.73478 0.5 5 0.5H17C17.2652 0.5 17.5196 0.605357 17.7071 0.792893C17.8946 0.98043 18 1.23478 18 1.5V15.5C18 15.7652 17.8946 16.0196 17.7071 16.2071C17.5196 16.3946 17.2652 16.5 17 16.5H14V19.5C14 20.052 13.55 20.5 12.993 20.5H1.007C0.875127 20.5008 0.744397 20.4755 0.622322 20.4256C0.500247 20.3757 0.389233 20.3022 0.295659 20.2093C0.202084 20.1164 0.127793 20.0059 0.0770543 19.8841C0.0263156 19.7624 0.000129374 19.6319 0 19.5L0.00300002 5.5C0.00300002 4.948 0.453 4.5 1.01 4.5H4ZM2.003 6.5L2 18.5H12V6.5H2.003ZM6 4.5H14V14.5H16V2.5H6V4.5Z" fill="black"/>
  <path d="M4 4.5V1.5C4 1.23478 4.10536 0.98043 4.29289 0.792893C4.48043 0.605357 4.73478 0.5 5 0.5H17C17.2652 0.5 17.5196 0.605357 17.7071 0.792893C17.8946 0.98043 18 1.23478 18 1.5V15.5C18 15.7652 17.8946 16.0196 17.7071 16.2071C17.5196 16.3946 17.2652 16.5 17 16.5H14V19.5C14 20.052 13.55 20.5 12.993 20.5H1.007C0.875127 20.5008 0.744397 20.4755 0.622322 20.4256C0.500247 20.3757 0.389233 20.3022 0.295659 20.2093C0.202084 20.1164 0.127793 20.0059 0.0770543 19.8841C0.0263156 19.7624 0.000129374 19.6319 0 19.5L0.00300002 5.5C0.00300002 4.948 0.453 4.5 1.01 4.5H4ZM2.003 6.5L2 18.5H12V6.5H2.003ZM6 4.5H14V14.5H16V2.5H6V4.5Z" fill="white" fill-opacity="0.45"/>
</svg>