<svg xmlns="http://www.w3.org/2000/svg" width="48" height="52" viewBox="0 0 48 52" fill="none">
  <path d="M7.41435 0.467842C3.79931 1.70121 1.22626 4.46564 0.290606 8.187C0.0141622 9.31404 -0.0283676 11.6957 0.0141622 26.0708L0.0779569 42.6361L0.673374 43.5505C1.46018 44.7414 2.79986 45.358 4.30967 45.2305C5.16027 45.1667 5.88328 44.8477 7.64826 43.827C8.88163 43.104 9.96614 42.5085 10.0299 42.5085C10.115 42.5085 10.1788 43.7632 10.1788 45.273C10.1788 47.123 10.2638 48.2713 10.4765 48.7392C11.1357 50.334 13.1133 51.4398 14.772 51.1208C15.1973 51.057 16.4307 50.4829 17.4939 49.8662C18.5572 49.2495 21.0664 47.8035 23.0441 46.6552C25.043 45.5069 28.9982 43.2103 31.869 41.5516C34.7397 39.893 38.5674 37.7027 40.3749 36.6607C44.075 34.5342 45.8826 32.9606 46.8182 31.0042C48.966 26.5599 48.1366 21.4988 44.7343 18.2878C43.6285 17.2458 43.352 17.0757 33.7828 11.5681C30.5718 9.71807 27.1694 7.7617 26.2338 7.20882C19.1951 3.08343 15.1973 0.871876 14.0065 0.467842C12.9858 0.106339 12.1352 1.52588e-05 10.7104 1.52588e-05C9.28566 1.52588e-05 8.43506 0.106339 7.41435 0.467842ZM12.199 4.50817C12.8369 4.67829 17.1749 7.0387 23.1504 10.5049C28.5942 13.6521 34.8035 17.2246 36.93 18.4579C39.0778 19.6913 41.183 21.0097 41.6296 21.3712C42.8417 22.4132 43.4371 23.8167 43.5222 25.8156C43.6072 27.4105 43.5647 27.6019 42.8842 28.8777C42.5014 29.622 41.8422 30.4939 41.4382 30.8341C40.6089 31.4721 14.8996 46.3362 14.6019 46.3362C14.4956 46.3362 14.453 44.8902 14.4743 43.104L14.5381 39.8717L24.4901 34.1089C35.2714 27.8783 35.3352 27.8358 35.3352 26.0495C35.3352 24.8162 34.8248 23.9656 33.634 23.2213C33.0811 22.8598 29.6574 20.8609 26.0211 18.7982C22.4061 16.7142 18.302 14.3326 16.8985 13.5245C14.0703 11.8658 13.1133 11.6106 11.88 12.2486C11.4759 12.4612 10.9231 12.9503 10.6679 13.3544L10.1788 14.0774V25.688V37.3199L7.37182 38.936L4.54359 40.5309L4.47979 24.8799L4.43726 9.22898L5.07521 7.91056C5.75569 6.5496 6.73387 5.57142 8.0523 4.93347C9.5621 4.21046 10.6466 4.10414 12.199 4.50817ZM21.3003 21.1373C24.8303 23.1788 28.1689 25.1139 28.7218 25.4328L29.7212 26.0282L22.3423 30.2812C18.302 32.6204 14.8571 34.5555 14.7082 34.598C14.4956 34.6618 14.4318 32.9606 14.4318 26.0495C14.4318 20.2229 14.4956 17.416 14.6444 17.416C14.772 17.416 17.7704 19.0959 21.3003 21.1373Z" fill="url(#paint0_linear_471_2192)"/>
  <defs>
    <linearGradient id="paint0_linear_471_2192" x1="24" y1="51.1758" x2="24" y2="1.52588e-05" gradientUnits="userSpaceOnUse">
      <stop stop-color="#E179CB"/>
      <stop offset="1" stop-color="#D7DF4D"/>
    </linearGradient>
  </defs>
</svg>