<svg xmlns="http://www.w3.org/2000/svg" width="24" height="25" viewBox="0 0 24 25" fill="none">
  <path d="M9.41176 5.70808L5.85935 9.65819H2.0915V15.3418H5.85935L9.41176 19.2919V5.70808ZM5.11268 18.1836H1.04575C0.768401 18.1836 0.50241 18.0339 0.306293 17.7674C0.110177 17.501 0 17.1396 0 16.7627V8.23729C0 7.86045 0.110177 7.49903 0.306293 7.23256C0.50241 6.96609 0.768401 6.81639 1.04575 6.81639H5.11268L10.6489 0.661036C10.7255 0.575707 10.8184 0.521698 10.9167 0.505296C11.015 0.488894 11.1147 0.510774 11.2042 0.56839C11.2937 0.626006 11.3694 0.716986 11.4223 0.830739C11.4753 0.944492 11.5033 1.07634 11.5033 1.21093V23.7891C11.5033 23.9237 11.4753 24.0555 11.4223 24.1693C11.3694 24.283 11.2937 24.374 11.2042 24.4316C11.1147 24.4892 11.015 24.5111 10.9167 24.4947C10.8184 24.4783 10.7255 24.4243 10.6489 24.339L5.11373 18.1836H5.11268ZM20.3022 12.5L24 17.5243L22.5213 19.5335L18.8235 14.5092L15.1258 19.5335L13.6471 17.5243L17.3448 12.5L13.6471 7.47569L15.1258 5.46653L18.8235 10.4908L22.5213 5.46653L24 7.47569L20.3022 12.5Z" fill="black"/>
  <path d="M9.41176 5.70808L5.85935 9.65819H2.0915V15.3418H5.85935L9.41176 19.2919V5.70808ZM5.11268 18.1836H1.04575C0.768401 18.1836 0.50241 18.0339 0.306293 17.7674C0.110177 17.501 0 17.1396 0 16.7627V8.23729C0 7.86045 0.110177 7.49903 0.306293 7.23256C0.50241 6.96609 0.768401 6.81639 1.04575 6.81639H5.11268L10.6489 0.661036C10.7255 0.575707 10.8184 0.521698 10.9167 0.505296C11.015 0.488894 11.1147 0.510774 11.2042 0.56839C11.2937 0.626006 11.3694 0.716986 11.4223 0.830739C11.4753 0.944492 11.5033 1.07634 11.5033 1.21093V23.7891C11.5033 23.9237 11.4753 24.0555 11.4223 24.1693C11.3694 24.283 11.2937 24.374 11.2042 24.4316C11.1147 24.4892 11.015 24.5111 10.9167 24.4947C10.8184 24.4783 10.7255 24.4243 10.6489 24.339L5.11373 18.1836H5.11268ZM20.3022 12.5L24 17.5243L22.5213 19.5335L18.8235 14.5092L15.1258 19.5335L13.6471 17.5243L17.3448 12.5L13.6471 7.47569L15.1258 5.46653L18.8235 10.4908L22.5213 5.46653L24 7.47569L20.3022 12.5Z" fill="white" fill-opacity="0.45"/>
</svg>