<svg xmlns="http://www.w3.org/2000/svg" width="24" height="25" viewBox="0 0 24 25" fill="none">
  <path d="M12 11.3C13.5913 11.3 15.1174 11.9321 16.2426 13.0574C17.3679 14.1826 18 15.7087 18 17.3V24.5H15.6V17.3C15.6001 16.3817 15.2492 15.4982 14.6193 14.8301C13.9893 14.162 13.1279 13.7599 12.2112 13.706L12 13.7C11.0817 13.6999 10.1982 14.0508 9.53009 14.6807C8.86199 15.3107 8.45987 16.1721 8.406 17.0888L8.4 17.3V24.5H6V17.3C6 15.7087 6.63214 14.1826 7.75736 13.0574C8.88258 11.9321 10.4087 11.3 12 11.3ZM4.2 14.9C4.5348 14.9 4.86 14.9396 5.172 15.0128C4.96683 15.6236 4.84532 16.2594 4.8108 16.9028L4.8 17.3V17.4032C4.66206 17.3538 4.51859 17.3216 4.3728 17.3072L4.2 17.3C3.75254 17.3 3.32113 17.4667 2.9899 17.7675C2.65866 18.0684 2.45136 18.4818 2.4084 18.9272L2.4 19.1V24.5H0V19.1C0 17.9861 0.442499 16.9178 1.23015 16.1302C2.0178 15.3425 3.08609 14.9 4.2 14.9ZM19.8 14.9C20.9139 14.9 21.9822 15.3425 22.7698 16.1302C23.5575 16.9178 24 17.9861 24 19.1V24.5H21.6V19.1C21.6 18.6525 21.4333 18.2211 21.1325 17.8899C20.8316 17.5587 20.4182 17.3514 19.9728 17.3084L19.8 17.3C19.59 17.3 19.3884 17.336 19.2 17.402V17.3C19.2 16.5008 19.0704 15.7328 18.8292 15.0152C19.14 14.9396 19.4652 14.9 19.8 14.9ZM4.2 7.7C4.99565 7.7 5.75871 8.01607 6.32132 8.57868C6.88393 9.14129 7.2 9.90435 7.2 10.7C7.2 11.4957 6.88393 12.2587 6.32132 12.8213C5.75871 13.3839 4.99565 13.7 4.2 13.7C3.40435 13.7 2.64129 13.3839 2.07868 12.8213C1.51607 12.2587 1.2 11.4957 1.2 10.7C1.2 9.90435 1.51607 9.14129 2.07868 8.57868C2.64129 8.01607 3.40435 7.7 4.2 7.7ZM19.8 7.7C20.5956 7.7 21.3587 8.01607 21.9213 8.57868C22.4839 9.14129 22.8 9.90435 22.8 10.7C22.8 11.4957 22.4839 12.2587 21.9213 12.8213C21.3587 13.3839 20.5956 13.7 19.8 13.7C19.0044 13.7 18.2413 13.3839 17.6787 12.8213C17.1161 12.2587 16.8 11.4957 16.8 10.7C16.8 9.90435 17.1161 9.14129 17.6787 8.57868C18.2413 8.01607 19.0044 7.7 19.8 7.7ZM4.2 10.1C4.04087 10.1 3.88826 10.1632 3.77574 10.2757C3.66321 10.3883 3.6 10.5409 3.6 10.7C3.6 10.8591 3.66321 11.0117 3.77574 11.1243C3.88826 11.2368 4.04087 11.3 4.2 11.3C4.35913 11.3 4.51174 11.2368 4.62426 11.1243C4.73679 11.0117 4.8 10.8591 4.8 10.7C4.8 10.5409 4.73679 10.3883 4.62426 10.2757C4.51174 10.1632 4.35913 10.1 4.2 10.1ZM19.8 10.1C19.6409 10.1 19.4883 10.1632 19.3757 10.2757C19.2632 10.3883 19.2 10.5409 19.2 10.7C19.2 10.8591 19.2632 11.0117 19.3757 11.1243C19.4883 11.2368 19.6409 11.3 19.8 11.3C19.9591 11.3 20.1117 11.2368 20.2243 11.1243C20.3368 11.0117 20.4 10.8591 20.4 10.7C20.4 10.5409 20.3368 10.3883 20.2243 10.2757C20.1117 10.1632 19.9591 10.1 19.8 10.1ZM12 0.5C13.273 0.5 14.4939 1.00571 15.3941 1.90589C16.2943 2.80606 16.8 4.02696 16.8 5.3C16.8 6.57304 16.2943 7.79394 15.3941 8.69411C14.4939 9.59429 13.273 10.1 12 10.1C10.727 10.1 9.50606 9.59429 8.60589 8.69411C7.70571 7.79394 7.2 6.57304 7.2 5.3C7.2 4.02696 7.70571 2.80606 8.60589 1.90589C9.50606 1.00571 10.727 0.5 12 0.5ZM12 2.9C11.3635 2.9 10.753 3.15286 10.3029 3.60294C9.85286 4.05303 9.6 4.66348 9.6 5.3C9.6 5.93652 9.85286 6.54697 10.3029 6.99706C10.753 7.44714 11.3635 7.7 12 7.7C12.6365 7.7 13.247 7.44714 13.6971 6.99706C14.1471 6.54697 14.4 5.93652 14.4 5.3C14.4 4.66348 14.1471 4.05303 13.6971 3.60294C13.247 3.15286 12.6365 2.9 12 2.9Z" fill="black"/>
  <path d="M12 11.3C13.5913 11.3 15.1174 11.9321 16.2426 13.0574C17.3679 14.1826 18 15.7087 18 17.3V24.5H15.6V17.3C15.6001 16.3817 15.2492 15.4982 14.6193 14.8301C13.9893 14.162 13.1279 13.7599 12.2112 13.706L12 13.7C11.0817 13.6999 10.1982 14.0508 9.53009 14.6807C8.86199 15.3107 8.45987 16.1721 8.406 17.0888L8.4 17.3V24.5H6V17.3C6 15.7087 6.63214 14.1826 7.75736 13.0574C8.88258 11.9321 10.4087 11.3 12 11.3ZM4.2 14.9C4.5348 14.9 4.86 14.9396 5.172 15.0128C4.96683 15.6236 4.84532 16.2594 4.8108 16.9028L4.8 17.3V17.4032C4.66206 17.3538 4.51859 17.3216 4.3728 17.3072L4.2 17.3C3.75254 17.3 3.32113 17.4667 2.9899 17.7675C2.65866 18.0684 2.45136 18.4818 2.4084 18.9272L2.4 19.1V24.5H0V19.1C0 17.9861 0.442499 16.9178 1.23015 16.1302C2.0178 15.3425 3.08609 14.9 4.2 14.9ZM19.8 14.9C20.9139 14.9 21.9822 15.3425 22.7698 16.1302C23.5575 16.9178 24 17.9861 24 19.1V24.5H21.6V19.1C21.6 18.6525 21.4333 18.2211 21.1325 17.8899C20.8316 17.5587 20.4182 17.3514 19.9728 17.3084L19.8 17.3C19.59 17.3 19.3884 17.336 19.2 17.402V17.3C19.2 16.5008 19.0704 15.7328 18.8292 15.0152C19.14 14.9396 19.4652 14.9 19.8 14.9ZM4.2 7.7C4.99565 7.7 5.75871 8.01607 6.32132 8.57868C6.88393 9.14129 7.2 9.90435 7.2 10.7C7.2 11.4957 6.88393 12.2587 6.32132 12.8213C5.75871 13.3839 4.99565 13.7 4.2 13.7C3.40435 13.7 2.64129 13.3839 2.07868 12.8213C1.51607 12.2587 1.2 11.4957 1.2 10.7C1.2 9.90435 1.51607 9.14129 2.07868 8.57868C2.64129 8.01607 3.40435 7.7 4.2 7.7ZM19.8 7.7C20.5956 7.7 21.3587 8.01607 21.9213 8.57868C22.4839 9.14129 22.8 9.90435 22.8 10.7C22.8 11.4957 22.4839 12.2587 21.9213 12.8213C21.3587 13.3839 20.5956 13.7 19.8 13.7C19.0044 13.7 18.2413 13.3839 17.6787 12.8213C17.1161 12.2587 16.8 11.4957 16.8 10.7C16.8 9.90435 17.1161 9.14129 17.6787 8.57868C18.2413 8.01607 19.0044 7.7 19.8 7.7ZM4.2 10.1C4.04087 10.1 3.88826 10.1632 3.77574 10.2757C3.66321 10.3883 3.6 10.5409 3.6 10.7C3.6 10.8591 3.66321 11.0117 3.77574 11.1243C3.88826 11.2368 4.04087 11.3 4.2 11.3C4.35913 11.3 4.51174 11.2368 4.62426 11.1243C4.73679 11.0117 4.8 10.8591 4.8 10.7C4.8 10.5409 4.73679 10.3883 4.62426 10.2757C4.51174 10.1632 4.35913 10.1 4.2 10.1ZM19.8 10.1C19.6409 10.1 19.4883 10.1632 19.3757 10.2757C19.2632 10.3883 19.2 10.5409 19.2 10.7C19.2 10.8591 19.2632 11.0117 19.3757 11.1243C19.4883 11.2368 19.6409 11.3 19.8 11.3C19.9591 11.3 20.1117 11.2368 20.2243 11.1243C20.3368 11.0117 20.4 10.8591 20.4 10.7C20.4 10.5409 20.3368 10.3883 20.2243 10.2757C20.1117 10.1632 19.9591 10.1 19.8 10.1ZM12 0.5C13.273 0.5 14.4939 1.00571 15.3941 1.90589C16.2943 2.80606 16.8 4.02696 16.8 5.3C16.8 6.57304 16.2943 7.79394 15.3941 8.69411C14.4939 9.59429 13.273 10.1 12 10.1C10.727 10.1 9.50606 9.59429 8.60589 8.69411C7.70571 7.79394 7.2 6.57304 7.2 5.3C7.2 4.02696 7.70571 2.80606 8.60589 1.90589C9.50606 1.00571 10.727 0.5 12 0.5ZM12 2.9C11.3635 2.9 10.753 3.15286 10.3029 3.60294C9.85286 4.05303 9.6 4.66348 9.6 5.3C9.6 5.93652 9.85286 6.54697 10.3029 6.99706C10.753 7.44714 11.3635 7.7 12 7.7C12.6365 7.7 13.247 7.44714 13.6971 6.99706C14.1471 6.54697 14.4 5.93652 14.4 5.3C14.4 4.66348 14.1471 4.05303 13.6971 3.60294C13.247 3.15286 12.6365 2.9 12 2.9Z" fill="white" fill-opacity="0.45"/>
</svg>